<?xml version="1.0" encoding="UTF-8"?>
<svg id="Camada_1" data-name="Camada 1" xmlns="http://www.w3.org/2000/svg" xmlns:xlink="http://www.w3.org/1999/xlink" viewBox="0 0 152.59 111.26">
  <defs>
    <style>
      .cls-1 {
        font-family: Inter-Light, Inter;
        font-variation-settings: 'wght' 300, 'slnt' 0;
        font-weight: 300;
      }

      .cls-1, .cls-2 {
        fill: #112250;
        font-size: 27.66px;
      }

      .cls-2 {
        font-family: Inter-Bold, Inter;
        font-variation-settings: 'wght' 700, 'slnt' 0;
        font-weight: 700;
      }

      .cls-3 {
        fill: #c0d5d6;
        filter: url(#drop-shadow-1);
      }
    </style>
    <filter id="drop-shadow-1" x="0" y="0" width="152.59" height="111.26" filterUnits="userSpaceOnUse">
      <feOffset dx="5" dy="5"/>
      <feGaussianBlur result="blur" stdDeviation="7"/>
      <feFlood flood-color="#bfbfbf" flood-opacity=".75"/>
      <feComposite in2="blur" operator="in"/>
      <feComposite in="SourceGraphic"/>
    </filter>
  </defs>
  <path class="cls-3" d="M118.55,15.6h-28.69c-1.32,0-2.54-.69-3.22-1.81l-7.39-12.13c-1.35-2.21-4.56-2.21-5.9,0l-7.39,12.13c-.68,1.12-1.9,1.81-3.22,1.81h-28.69C15.24,15.6,0,30.85,0,49.65v27.56c0,18.8,15.24,34.05,34.05,34.05h84.5c18.8,0,34.05-15.24,34.05-34.05v-27.56c0-18.81-15.24-34.05-34.05-34.05Z"/>
  <text class="cls-2" transform="translate(33.15 60.92)"><tspan x="0" y="0">Feirão</tspan></text>
  <text class="cls-1" transform="translate(43.57 91.62)"><tspan x="0" y="0">2025</tspan></text>
</svg>