<?xml version="1.0" encoding="UTF-8"?>
<svg id="Camada_1" data-name="Camada 1" xmlns="http://www.w3.org/2000/svg" viewBox="0 0 1068.03 470.23">
  <defs>
    <style>
      .cls-1, .cls-2 {
        fill: #1b3e8c;
      }

      .cls-2 {
        fill-rule: evenodd;
      }
    </style>
  </defs>
  <g>
    <g>
      <polygon class="cls-2" points="1064.97 271.25 1044.73 251.01 1024.43 271.25 1044.73 291.52 1064.97 271.25"/>
      <path class="cls-2" d="M1056.77,125.91c-1.35-4.81-12.14,2.14-35.43,22.99,9.28,10.2,13.93,4.39,21.37,1.64,5.96,11.28,8.33,62.35-30.59,77.76.99-51.45,1.52-106.5,1.52-106.5,0-1.43-1.23-1.86-2.3-1.75-10.7,1.48-29.68,20.28-44.3,36.14,8.03,13.26,18.3,1.34,26.37-1.92-.03,2.15-1.88,40.11-1.04,78.68-40.1,3.05-33.66-78.63-31.32-89.07.95-8.39-25.81,10.13-39.1,22.49,4.16,7.55,10.02,6.03,17.4,3.22-2.67,36.67,23.05,69.99,53.17,69.17,1.11,37.73,5.01,74.38,15.95,76.98,1.47.35,2.65-38.31,3.53-81.2,72.28-22.44,44.76-108.64,44.76-108.64Z"/>
      <path class="cls-2" d="M174.6,258.57v-107.49h-28.35v108.45c0,23.23,11.33,36.05,39.22,36.05h17.78v-20.69h-11.42c-12.46,0-17.24-3.52-17.24-16.32Z"/>
      <path class="cls-2" d="M602.94,152.52l-41.94,109.43-41.91-109.43h-40.95v143.06h28.35v-85.4c0-5.48-.19-14.9-.78-20.87h.87l40.89,106.27h26.23l40.91-106.27h.85c-.59,5.97-.77,15.38-.77,20.87v85.4h28.34v-143.06h-40.1Z"/>
      <path class="cls-2" d="M258.7,297.04c35.66,0,53.49-12.49,53.49-46.27v-64.48h-28.35v64.44c0,19.52-11.96,26.66-25.14,26.66s-25.14-7.14-25.14-26.66v-64.44h-28.35v64.48c0,33.78,17.82,46.27,53.49,46.27Z"/>
      <path class="cls-2" d="M439.67,231.7v17.38c0,33.78-20.44,47.96-56.1,47.96s-56.11-12.49-56.11-46.27v-99.69h28.35v40.76c9.4-4.56,21.09-7,32-7,36.53,0,51.86,20.1,51.86,46.87h0ZM355.81,250.73h0c0,19.52,15.42,26.66,28.6,26.66s28.6-7.14,28.6-26.66v-19.6c0-19.5-15.43-26.66-28.6-26.66s-28.6,7.16-28.6,26.66v19.6Z"/>
      <path class="cls-2" d="M832.37,184.83c10.91,0,22.59,2.44,31.99,7v-40.76h28.35v99.69c0,33.78-20.44,46.27-56.1,46.27s-56.11-14.18-56.11-47.96v-17.38c0-26.77,15.33-46.87,51.87-46.87h0ZM864.36,231.13h0c0-19.5-15.42-26.66-28.6-26.66s-28.6,7.16-28.6,26.66v19.6c0,19.52,15.42,26.66,28.6,26.66s28.6-7.14,28.6-26.66v-19.6Z"/>
      <path class="cls-2" d="M748.76,266.53c-11.92,7.92-20.92,10.86-34.48,10.86-16.72,0-30.34-9.17-30.34-26.66v-2.38h84.71v-8.77c0-33.79-20.45-54.74-56.11-54.74s-56.1,20.95-56.1,54.74v4.42c0,32.68,19.56,53.04,57.62,53.04,19.16,0,35.78-4.04,52.09-16.92l-17.4-13.6h0ZM683.94,231.56h0c0-19.93,15.42-27.7,28.6-27.7s28.59,7.78,28.59,27.7h-57.2Z"/>
      <path class="cls-2" d="M70.88,297.04c-44.2,0-67.82-23.48-67.82-61.54v-19.52c0-39.55,24.51-64.91,67.82-64.91,37.64,0,60.4,18.84,65.74,44.38h-30.19c-5.18-17.16-17.8-24.94-35.55-24.94-24.49,0-38.26,14.62-38.26,45.93v14.2c0,28.45,10.27,46.94,38.26,46.94,17.75,0,30.38-7.78,35.55-24.94h30.19c-5.34,25.54-28.1,44.38-65.74,44.38Z"/>
    </g>
    <g>
      <path class="cls-1" d="M41.08,45.77v8.3H1.52V.76h38.5v8.3H11.32v13.86h25.47v8.15H11.32v14.7h29.76Z"/>
      <path class="cls-1" d="M198.25,48.44l3.39-7.69c4.22,3.43,10.93,5.86,17.41,5.86,8.21,0,11.68-2.97,11.68-6.93,0-11.5-31.34-3.96-31.34-23.76,0-8.61,6.78-15.92,21.25-15.92,6.33,0,12.96,1.68,17.56,4.72l-3.09,7.69c-4.75-2.82-9.95-4.19-14.54-4.19-8.14,0-11.45,3.2-11.45,7.23,0,11.35,31.27,3.96,31.27,23.53,0,8.53-6.86,15.84-21.32,15.84-8.21,0-16.43-2.59-20.8-6.4Z"/>
      <path class="cls-1" d="M444.92,19.72c0,11.73-8.59,18.96-22.45,18.96h-11.91v15.38h-9.8V.76h21.7c13.86,0,22.45,7.16,22.45,18.96ZM435.05,19.72c0-6.7-4.45-10.59-13.04-10.59h-11.45v21.17h11.45c8.59,0,13.04-3.88,13.04-10.59Z"/>
      <path class="cls-1" d="M636.98,41.73h-26.37l-5.2,12.34h-10.1L619.04.76h9.64l23.81,53.31h-10.25l-5.27-12.34ZM633.74,33.97l-9.95-23.3-9.87,23.3h19.82Z"/>
      <path class="cls-1" d="M848.17,39.83l6.33,6.09c-4.75,5.56-11.75,8.68-20.04,8.91l-.75,2.97c4.45.53,6.56,3.12,6.56,6.4,0,4.42-4.07,7.23-10.25,7.23-2.71,0-5.05-.53-6.93-1.6l1.73-4.49c1.58.84,3.24,1.22,5.12,1.22,2.79,0,3.99-1.07,3.99-2.74,0-1.45-1.13-2.51-3.99-2.51h-2.34l1.73-6.7c-13.94-1.83-23.96-12.72-23.96-27.19,0-15.92,12.06-27.42,28.26-27.42,8.59,0,15.97,3.12,20.87,8.91l-6.33,6.02c-3.84-4.19-8.59-6.24-14.09-6.24-10.93,0-18.84,7.77-18.84,18.73s7.91,18.73,18.84,18.73c5.5,0,10.25-2.06,14.09-6.32Z"/>
      <path class="cls-1" d="M1009.7,27.42c0-15.76,12.06-27.42,28.41-27.42s28.41,11.58,28.41,27.42-12.06,27.42-28.41,27.42-28.41-11.65-28.41-27.42ZM1056.64,27.42c0-10.89-7.91-18.73-18.54-18.73s-18.54,7.84-18.54,18.73,7.91,18.73,18.54,18.73,18.54-7.84,18.54-18.73Z"/>
    </g>
  </g>
  <g>
    <path class="cls-1" d="M299.56,445.93l9.19-52.01h10.9l-2.96,16.58c2.41-1.95,5.53-3.11,9.27-3.11,7.94,0,12.46,4.98,12.46,14.79,0,16.66-8.49,27.02-23.52,27.02-5.68,0-12.3-1.56-15.34-3.27ZM327.43,423.51c0-4.13-1.32-8.33-5.76-8.33-3.11,0-6.15,1.95-6.7,4.98l-3.58,20.24c1.17.62,3.11,1.17,5.14,1.17,5.61,0,10.9-7.79,10.9-18.06Z"/>
    <path class="cls-1" d="M341.61,459.48c0-6.23,3.58-10.2,10.51-14.48-5.37-.86-8.41-3.66-8.25-9.5.08-.93.16-1.87.31-2.96l4.21-23.98h10.9l-4.05,23.13c-.23,1.17-.39,2.18-.39,3.12,0,2.41.93,3.97,4.59,3.97,3.35,0,6.46-2.49,7.16-6.46l4.2-23.75h10.82l-5.76,32.94c-.47,2.49-1.63,8.33-2.57,10.82-3.11,10.75-9.42,16.43-19.78,16.43-7.94,0-11.91-3.74-11.91-9.27ZM363.41,451.23l1.48-7.94c-1.79,1.63-3.66,2.65-6.39,4.28-4.05,2.57-6.93,5.53-6.93,9.58,0,2.57,1.4,3.74,3.89,3.74,4.59,0,6.85-3.66,7.94-9.65Z"/>
    <path class="cls-1" d="M401.64,427.94c0-24.06,14.79-32.55,27.8-32.55,6.7,0,14.17,2.65,17.75,10.2l-8.72,5.37c-2.73-4.44-5.76-6.23-9.89-6.23-8.95,0-15.34,8.49-15.34,22.5,0,7.86,2.96,12.69,9.89,12.69,3.11,0,6.23-.78,8.1-1.71l1.71-9.66h-8.02l1.4-7.86h18.3l-4.13,23.13c-4.83,2.88-11.99,5.14-19.47,5.14-12.15,0-19.39-6.77-19.39-21.02Z"/>
    <path class="cls-1" d="M454.67,408.56h8.88v5.61c2.57-4.75,6.62-6.77,10.36-6.77,2.41,0,4.75.62,6.15,1.56l-3.27,8.95c-1.48-.78-3.19-1.32-5.22-1.32-3.82,0-6.93,2.8-7.79,6.93l-4.36,24.53h-10.9l5.76-32.62.39-6.85Z"/>
    <path class="cls-1" d="M478.11,433.39c0-13.31,8.72-26.01,23.28-26.01,7.32,0,11.68,3.66,11.68,9.58,0,13.39-15.57,15.34-23.98,15.65-.23,4.28,1.56,8.33,7.32,8.33,4.21,0,7.71-1.87,10.12-3.35l2.73,7.09c-1.79,1.32-7.4,4.52-15.65,4.52-10.9,0-15.5-6.7-15.5-15.81ZM503.34,418.29c0-2.02-1.48-3.12-3.5-3.12-5.68,0-8.88,5.61-9.89,10.36,4.52,0,13.39-1.56,13.39-7.24Z"/>
    <path class="cls-1" d="M515.56,433.39c0-13.31,8.72-26.01,23.28-26.01,7.32,0,11.68,3.66,11.68,9.58,0,13.39-15.57,15.34-23.98,15.65-.23,4.28,1.56,8.33,7.32,8.33,4.21,0,7.71-1.87,10.12-3.35l2.73,7.09c-1.79,1.32-7.4,4.52-15.65,4.52-10.9,0-15.5-6.7-15.5-15.81ZM540.79,418.29c0-2.02-1.48-3.12-3.5-3.12-5.68,0-8.88,5.61-9.89,10.36,4.52,0,13.39-1.56,13.39-7.24Z"/>
    <path class="cls-1" d="M558.31,408.56h9.11l-.08,4.67c3.27-3.66,7.55-5.84,12.77-5.84,6.54,0,10.36,3.04,10.43,9.58,0,1.25-.23,2.96-.47,4.44l-4.75,26.63h-10.82l4.36-24.84c.23-1.09.23-2.1.31-3.11.08-2.49-.7-4.28-3.66-4.28-4.2,0-7.48,3.19-8.1,6.93l-4.52,25.31h-10.75l5.61-32.16.54-7.32Z"/>
    <path class="cls-1" d="M596,440.56c0-1.79.23-3.58.62-5.53l7.24-41.11h10.9l-2.65,14.64h10.2l-1.48,8.49h-10.2l-3.19,17.99c-.08.78-.23,1.87-.23,2.57.08,2.88,1.87,3.35,4.28,3.35,1.71,0,3.58-.78,4.91-1.48l1.64,6.93c-2.65,1.63-7.24,2.8-11.13,2.8-8.64,0-10.9-4.05-10.9-8.64Z"/>
    <path class="cls-1" d="M622.79,434.41c0-1.87.16-4.05.47-6.31,2.73-16.82,13.78-20.71,22.11-20.71,5.92,0,14.72,2.57,14.72,14.33,0,1.56-.16,3.97-.47,6.15-2.57,15.57-11.91,21.33-22.19,21.33-9.34,0-14.64-5.14-14.64-14.79ZM648.25,428.72c.39-2.49.62-4.91.62-6.62,0-4.28-1.4-6.77-5.14-6.77-4.83,0-7.79,4.44-9.11,11.52-.39,2.57-.78,5.37-.78,7.47,0,3.97,1.01,6.93,5.14,6.93,4.83,0,7.86-4.52,9.27-12.54Z"/>
    <path class="cls-1" d="M664.91,439.16c0-1.17.16-2.8.39-4.21l4.67-26.4h10.82l-4.36,24.92c-.16,1.01-.31,2.26-.31,3.11-.16,2.73.7,4.21,4.13,4.21s6.93-3.27,7.63-6.77l4.44-25.46h10.9l-5.68,32.47-.55,7.01h-9.27l.16-4.28h-.23c-3.04,3.58-7.01,5.29-11.76,5.29-7.4,0-10.98-3.27-10.98-9.89Z"/>
    <path class="cls-1" d="M711.71,408.56h8.88v5.61c2.57-4.75,6.62-6.77,10.36-6.77,2.41,0,4.75.62,6.15,1.56l-3.27,8.95c-1.48-.78-3.19-1.32-5.22-1.32-3.82,0-6.93,2.8-7.79,6.93l-4.36,24.53h-10.9l5.76-32.62.39-6.85Z"/>
    <path class="cls-1" d="M732.81,444.84l4.13-7.4c2.49,1.64,7.01,3.82,10.9,3.82,3.27,0,5.68-1.4,5.68-4.21s-3.12-4.05-6.39-5.29c-4.28-1.63-9.42-3.66-9.42-10.98,0-8.8,7.16-13.39,16.12-13.39,6.07,0,11.76,2.65,14.64,6l-5.84,5.84c-2.8-2.49-5.84-3.97-8.64-3.97-3.11,0-5.37,1.32-5.37,4.05,0,3.19,3.35,4.13,7.4,5.84,4.21,1.71,8.49,4.36,8.49,10.59,0,8.8-6.7,13.47-16.9,13.47-7.09,0-12.85-2.72-14.79-4.36Z"/>
  </g>
</svg>