<svg viewBox="0 0 64 64" xmlns="http://www.w3.org/2000/svg"><g id="Icons"><path d="m24.751 20.708a.74014.74014 0 0 1 -.09766-.00635l-22.38967-2.91015a.74991.74991 0 1 1 .19333-1.4873l22.38965 2.91016a.74992.74992 0 0 1 -.09565 1.49364z" fill="#333a73"/><path d="m62 40.59a12.018 12.018 0 0 1 -12 12h-48a4.05754 4.05754 0 0 1 .53-2 4.01681 4.01681 0 0 1 3.47-2h44a8 8 0 0 0 7.39-4.94 4.99318 4.99318 0 0 1 4.44-3.06z" fill="#e28e29"/><path d="m61.83 40.59a12.01955 12.01955 0 0 1 -11.83 10h-47.47a4.01681 4.01681 0 0 1 3.47-2h44a8 8 0 0 0 7.39-4.94 4.99318 4.99318 0 0 1 4.44-3.06z" fill="#fba834"/><path d="m40.75 8a5.95068 5.95068 0 0 1 -1.32 3.76 6.00148 6.00148 0 1 1 -6.36-9.52 5.83076 5.83076 0 0 1 1.68-.24 6.00475 6.00475 0 0 1 6 6z" fill="#00b6e0"/><path d="m40.75 8a5.95068 5.95068 0 0 1 -1.32 3.76 5.83283 5.83283 0 0 1 -1.68.24 6.00394 6.00394 0 0 1 -4.68-9.76 5.83076 5.83076 0 0 1 1.68-.24 6.00475 6.00475 0 0 1 6 6z" fill="#08c2ff"/><path d="m37.46 47.58a2.85244 2.85244 0 0 1 -5.03-1.84 2.92708 2.92708 0 0 1 .22-1.11l3.35-8.04-9.65-3.86a6.00488 6.00488 0 0 1 -3.43-7.57l2.56-7.27a6.416 6.416 0 0 1 4.24-4.02 6.32919 6.32919 0 0 0 -2.24 3.02l-2.56 7.27a6.00488 6.00488 0 0 0 3.43 7.57l7.77 3.1a2.00867 2.00867 0 0 1 1.1 2.63l-2.57 6.17a2.92708 2.92708 0 0 0 -.22 1.11 2.85688 2.85688 0 0 0 2.86 2.85.9697.9697 0 0 0 .17-.01z" fill="#0858b7"/><path d="m43.25 36.86-5.44 10.22a2.49248 2.49248 0 0 1 -.35.5.9697.9697 0 0 1 -.17.01 2.85688 2.85688 0 0 1 -2.86-2.85 2.92708 2.92708 0 0 1 .22-1.11l2.57-6.17a2.00867 2.00867 0 0 0 -1.1-2.63l-7.77-3.1a6.00488 6.00488 0 0 1 -3.43-7.57l2.56-7.27a6.32919 6.32919 0 0 1 2.24-3.02 5.99257 5.99257 0 0 1 1.84-.28 6.42458 6.42458 0 0 1 6.36 5.43 5.47062 5.47062 0 0 1 .09 1 6.45591 6.45591 0 0 1 -.15 1.37l-3.85-2.72a2.48743 2.48743 0 0 0 -1.44-.46 2.50963 2.50963 0 0 0 -1.17 4.73l4.94 2.58-.51 1.3a1.00138 1.00138 0 0 0 .4 1.21l5.63 3.57a3.99391 3.99391 0 0 1 1.39 5.26z" fill="#006bff"/><path d="m39.46973 26.33789h-37.46973a.75.75 0 0 1 0-1.5h37.46973a.75.75 0 0 1 0 1.5z" fill="#333a73"/><path d="m5 28.33789a.7502.7502 0 0 1 -.75-.75v-4a.75.75 0 0 1 1.5 0v4a.7502.7502 0 0 1 -.75.75z" fill="#1f2754"/><path d="m5.07715 20.1665a.74022.74022 0 0 1 -.09766-.00634.75082.75082 0 0 1 -.64746-.84034l.51465-3.96682a.75039.75039 0 0 1 1.48828.19336l-.51465 3.96679a.751.751 0 0 1 -.74316.65335z" fill="#1f2754"/><g fill="#a4dee0"><path d="m42.75 62a.7555.7555 0 0 1 -.75.75h-10a.75.75 0 0 1 0-1.5h10a.75546.75546 0 0 1 .75.75z"/><path d="m34.75 57a.7555.7555 0 0 1 -.75.75h-10a.75.75 0 0 1 0-1.5h10a.75546.75546 0 0 1 .75.75z"/><path d="m12.75 57a.7555.7555 0 0 1 -.75.75h-10a.75.75 0 0 1 0-1.5h10a.75546.75546 0 0 1 .75.75z"/><path d="m28.75 62a.7555.7555 0 0 1 -.75.75h-4a.75.75 0 0 1 0-1.5h4a.75546.75546 0 0 1 .75.75z"/><path d="m50.75 62a.7555.7555 0 0 1 -.75.75h-4a.75.75 0 0 1 0-1.5h4a.75546.75546 0 0 1 .75.75z"/><path d="m20.75 57a.7555.7555 0 0 1 -.75.75h-4a.75.75 0 0 1 0-1.5h4a.75546.75546 0 0 1 .75.75z"/><path d="m16.75 43a.7555.7555 0 0 1 -.75.75h-8a.75.75 0 0 1 0-1.5h8a.75546.75546 0 0 1 .75.75z"/><path d="m24.75 43a.7555.7555 0 0 1 -.75.75h-4a.75.75 0 0 1 0-1.5h4a.75546.75546 0 0 1 .75.75z"/><path d="m20.75 38a.7555.7555 0 0 1 -.75.75h-6a.75.75 0 0 1 0-1.5h6a.75546.75546 0 0 1 .75.75z"/><path d="m16.75 6a.7555.7555 0 0 1 -.75.75h-7a.75.75 0 0 1 0-1.5h7a.75546.75546 0 0 1 .75.75z"/><path d="m24.75 6a.7555.7555 0 0 1 -.75.75h-4a.75.75 0 0 1 0-1.5h4a.75546.75546 0 0 1 .75.75z"/><path d="m20.75 11a.7555.7555 0 0 1 -.75.75h-6a.75.75 0 0 1 0-1.5h6a.75546.75546 0 0 1 .75.75z"/></g><path d="m16.75 6a.7555.7555 0 0 1 -.75.75h-5a.75.75 0 0 1 0-1.5h5a.75546.75546 0 0 1 .75.75z" fill="#bcf2f6"/><path d="m24.75 6a.7555.7555 0 0 1 -.75.75h-2a.75.75 0 0 1 0-1.5h2a.75546.75546 0 0 1 .75.75z" fill="#bcf2f6"/><path d="m20.75 11a.7555.7555 0 0 1 -.75.75h-4a.75.75 0 0 1 0-1.5h4a.75546.75546 0 0 1 .75.75z" fill="#bcf2f6"/><path d="m42.75 57a.7555.7555 0 0 1 -.75.75h-4a.75.75 0 0 1 0-1.5h4a.75546.75546 0 0 1 .75.75z" fill="#a4dee0"/><path d="m56.75 57a.7555.7555 0 0 1 -.75.75h-4a.75.75 0 0 1 0-1.5h4a.75546.75546 0 0 1 .75.75z" fill="#a4dee0"/><path d="m42.75 62a.7555.7555 0 0 1 -.75.75h-8a.75.75 0 0 1 0-1.5h8a.75546.75546 0 0 1 .75.75z" fill="#bcf2f6"/><path d="m34.75 57a.7555.7555 0 0 1 -.75.75h-8a.75.75 0 0 1 0-1.5h8a.75546.75546 0 0 1 .75.75z" fill="#bcf2f6"/><path d="m12.75 57a.7555.7555 0 0 1 -.75.75h-8a.75.75 0 0 1 0-1.5h8a.75546.75546 0 0 1 .75.75z" fill="#bcf2f6"/><path d="m28.75 62a.7555.7555 0 0 1 -.75.75h-2a.75.75 0 0 1 0-1.5h2a.75546.75546 0 0 1 .75.75z" fill="#bcf2f6"/><path d="m50.75 62a.7555.7555 0 0 1 -.75.75h-2a.75.75 0 0 1 0-1.5h2a.75546.75546 0 0 1 .75.75z" fill="#bcf2f6"/><path d="m20.75 57a.7555.7555 0 0 1 -.75.75h-2a.75.75 0 0 1 0-1.5h2a.75546.75546 0 0 1 .75.75z" fill="#bcf2f6"/><path d="m16.75 43a.7555.7555 0 0 1 -.75.75h-6a.75.75 0 0 1 0-1.5h6a.75546.75546 0 0 1 .75.75z" fill="#bcf2f6"/><path d="m24.75 43a.7555.7555 0 0 1 -.75.75h-2a.75.75 0 0 1 0-1.5h2a.75546.75546 0 0 1 .75.75z" fill="#bcf2f6"/><path d="m20.75 38a.7555.7555 0 0 1 -.75.75h-4a.75.75 0 0 1 0-1.5h4a.75546.75546 0 0 1 .75.75z" fill="#bcf2f6"/><path d="m42.75 57a.7555.7555 0 0 1 -.75.75h-2a.75.75 0 0 1 0-1.5h2a.75546.75546 0 0 1 .75.75z" fill="#bcf2f6"/><path d="m56.75 57a.7555.7555 0 0 1 -.75.75h-2a.75.75 0 0 1 0-1.5h2a.75546.75546 0 0 1 .75.75z" fill="#bcf2f6"/><path d="m45.72 27.53-.84.02-1.82.05a10.05833 10.05833 0 0 1 -4.9-1.13l-1.82-.95-4.94-2.58a2.50754 2.50754 0 1 1 2.61-4.27l.06.04 3.79 2.68 1.58 1.12a5.01695 5.01695 0 0 0 2.59.9l3.75.22a1.95218 1.95218 0 0 1 -.06006 3.9z" fill="#00b6e0"/><path d="m45.72 27.53-.84.02a9.96329 9.96329 0 0 1 -3.72-1.08l-1.82-.95-4.94-2.58a2.51106 2.51106 0 0 1 -.99-3.5 2.43752 2.43752 0 0 1 .66-.73l3.79 2.68 1.58 1.12a5.01695 5.01695 0 0 0 2.59.9l3.75.22a1.95218 1.95218 0 0 1 -.06006 3.9z" fill="#08c2ff"/><path d="m62 39.83789a5.7174 5.7174 0 0 0 -5.30078 3.52246 7.238 7.238 0 0 1 -6.69922 4.47754h-11.78442a3.66964 3.66964 0 0 0 .2561-.40723l5.43945-10.21875a4.75539 4.75539 0 0 0 -1.64941-6.24707l-5.62988-3.57084a.24722.24722 0 0 1 -.10352-.30224l.205-.52259 1.07921.5636a10.82335 10.82335 0 0 0 5.00782 1.21826c.08594 0 .17285-.001.25879-.00341l2.66016-.07032h.00586a2.702 2.702 0 0 0 .0791-5.39795l-3.75391-.22021a4.24182 4.24182 0 0 1 -2.19635-.76314l-1.19934-.8479a7.01111 7.01111 0 0 0 -2.42975-6.4704 6.76207 6.76207 0 1 0 -6.03446-1.5977 7.19453 7.19453 0 0 0 -5.437 4.65918l-.52735 1.49713-18.07214-2.349.161-1.2409a.75039.75039 0 0 0 -1.48828-.19341l-.161 1.24084-2.22868-.28964a.74991.74991 0 1 0 -.19336 1.4873l2.22907.28974-.16071 1.23858a.75082.75082 0 0 0 .64746.84034.74022.74022 0 0 0 .09766.00634.751.751 0 0 0 .74316-.65332l.16072-1.23852 17.75561 2.30786-1.499 4.25537h-16.48761v-1.25a.75.75 0 0 0 -1.5 0v1.25h-2.25a.75.75 0 0 0 0 1.5h2.25v1.25a.75.75 0 0 0 1.5 0v-1.25h16.13007a6.73664 6.73664 0 0 0 4.19122 7.08643l8.94336 3.57768-3.05957 7.3437a3.69031 3.69031 0 0 0 -.27539 1.39209 3.56231 3.56231 0 0 0 .69073 2.1001h-26.37042a4.7554 4.7554 0 0 0 -4.75 4.75.7502.7502 0 0 0 .75.75h48a12.76457 12.76457 0 0 0 12.75-12.75.7502.7502 0 0 0 -.75-.75zm-20.01367-15.68115 3.74414.21972a1.21045 1.21045 0 0 1 1.11914 1.01319 1.16818 1.16818 0 0 1 -.25488.94531 1.21692 1.21692 0 0 1 -.89942.44336l-2.65332.06982a9.21766 9.21766 0 0 1 -4.53515-1.04492l-6.75879-3.52978a1.74819 1.74819 0 0 1 -.93848-1.55518 1.72961 1.72961 0 0 1 .24414-.89453 1.80349 1.80349 0 0 1 .2193-.29394 1.74732 1.74732 0 0 1 .93011-.52784c.039-.00836.07776-.00708.11677-.01275a1.81073 1.81073 0 0 1 .25079-.02643c.00549-.00006.01086.00152.01636.00159a1.72558 1.72558 0 0 1 .45117.06964c.03729.01043.07428.02191.11084.03485a1.76445 1.76445 0 0 1 .4281.21191l5.43359 3.84229a5.74787 5.74787 0 0 0 2.97559 1.03369zm-12.48533-16.15674a5.25 5.25 0 1 1 5.25 5.25 5.25605 5.25605 0 0 1 -5.25-5.25zm-3.31351 10.13721a5.69914 5.69914 0 0 1 11.07228 1.88086v.02734l-2.82032-1.9917a3.22365 3.22365 0 0 0 -2.5498-.519 3.2798 3.2798 0 0 0 -2.12207 1.51709 3.25874 3.25874 0 0 0 1.28515 4.55078l2.36487 1.23535h-9.59015zm6.9922 27.60058a2.1427 2.1427 0 0 1 .16308-.82129l3.34961-8.04a.75.75 0 0 0 -.41406-.98486l-9.64941-3.85937a5.23972 5.23972 0 0 1 -3.23169-5.69434h11.81518l-.08447.21533a1.74451 1.74451 0 0 0 .70117 2.10791l5.62988 3.5708a3.25118 3.25118 0 0 1 1.13086 4.27051l-.002.00293-5.43843 10.21725a2.10934 2.10934 0 0 1 -3.96972-.98487zm16.82031 6.1001h-47.16309a3.2565 3.2565 0 0 1 3.16309-2.5h44a8.73325 8.73325 0 0 0 8.084-5.40137 4.212 4.212 0 0 1 3.13672-2.52783 11.26485 11.26485 0 0 1 -11.22072 10.4292zm-7.25 10.16211a.7502.7502 0 0 1 -.75.75h-10a.75.75 0 0 1 0-1.5h10a.7502.7502 0 0 1 .75.75zm-19.5-5a.7502.7502 0 0 1 .75-.75h10a.75.75 0 0 1 0 1.5h-10a.7502.7502 0 0 1 -.75-.75zm-10.5 0a.7502.7502 0 0 1 -.75.75h-10a.75.75 0 0 1 0-1.5h10a.7502.7502 0 0 1 .75.75zm16 5a.7502.7502 0 0 1 -.75.75h-4a.75.75 0 0 1 0-1.5h4a.7502.7502 0 0 1 .75.75zm22 0a.7502.7502 0 0 1 -.75.75h-4a.75.75 0 0 1 0-1.5h4a.7502.7502 0 0 1 .75.75zm-30-5a.7502.7502 0 0 1 -.75.75h-4a.75.75 0 0 1 0-1.5h4a.7502.7502 0 0 1 .75.75zm-12.75-14.75h8a.75.75 0 0 1 0 1.5h-8a.75.75 0 0 1 0-1.5zm12 0h4a.75.75 0 0 1 0 1.5h-4a.75.75 0 0 1 0-1.5zm.75-4.25a.7502.7502 0 0 1 -.75.75h-6a.75.75 0 0 1 0-1.5h6a.7502.7502 0 0 1 .75.75zm-12.5-32a.7502.7502 0 0 1 .75-.75h7a.75.75 0 0 1 0 1.5h-7a.7502.7502 0 0 1 -.75-.75zm11 0a.7502.7502 0 0 1 .75-.75h4a.75.75 0 0 1 0 1.5h-4a.7502.7502 0 0 1 -.75-.75zm.75 4.25a.75.75 0 0 1 0 1.5h-6a.75.75 0 0 1 0-1.5zm22.75 46.75a.7502.7502 0 0 1 -.75.75h-4a.75.75 0 0 1 0-1.5h4a.7502.7502 0 0 1 .75.75zm14 0a.7502.7502 0 0 1 -.75.75h-4a.75.75 0 0 1 0-1.5h4a.7502.7502 0 0 1 .75.75z" fill="#1f2754"/></g></svg>